# xmcd
# 
# Track frame offsets:
#     183
#     19165
#     39455
#     55518
#     87110
#     102725
#     116040
#     141173
#     159948
#     173335
#     185513
#     208150
#     227083
#     245210
# 
# Disc length: 3579
# 
# Revision: 7
# Processed by: cddbd v1.5.2PL0 Copyright (c) Steve Scherf et al.
# Submitted via: fre:ac v1.0.27
# 
DISCID=ba0df90e
DTITLE=Les Rita Mitsouko - Rita Mitsouko
DYEAR=1984
DGENRE=Rock
TTITLE0=Restez Avec Moi
TTITLE1=Jalousie
TTITLE2=Le Futur N°4
TTITLE3=La Fille Venue Du Froid
TTITLE4=Yaktagan
TTITLE5=In My Tea
TTITLE6=Marcia Baïla
TTITLE7=Oum Khalsoum
TTITLE8=Amnésie
TTITLE9=Don't Forget The Nite
TTITLE10=Galoping
TTITLE11=Dans La Steppe
TTITLE12=Minuit Dansant
TTITLE13=Aïe (Kriptonite Miss Spleïn)
EXTD=
EXTT0=
EXTT1=
EXTT2=
EXTT3=
EXTT4=
EXTT5=
EXTT6=
EXTT7=
EXTT8=
EXTT9=
EXTT10=
EXTT11=
EXTT12=
EXTT13=
PLAYORDER=
